<?xml version="1.0" encoding="utf-8"?>
<!-- Generator: Adobe Illustrator 17.0.1, SVG Export Plug-In . SVG Version: 6.00 Build 0)  -->
<!DOCTYPE svg PUBLIC "-//W3C//DTD SVG 1.1//EN" "http://www.w3.org/Graphics/SVG/1.1/DTD/svg11.dtd">
<svg version="1.1" id="logo01_xA0_Image_1_" xmlns="http://www.w3.org/2000/svg" xmlns:xlink="http://www.w3.org/1999/xlink"
	 x="0px" y="0px" width="180.345px" height="103.21px" viewBox="0 26.716 180.345 103.21"
	 enable-background="new 0 26.716 180.345 103.21" xml:space="preserve">
<path d="M72.061,40.823c0,5.005,0,9.864,0,14.876c0.495,0,0.959,0,1.424,0c14.359,0.006,28.718,0.024,43.077-0.007
	c1.012-0.002,1.6,0.311,2.118,1.147c0.946,1.528,1.975,3.008,3.025,4.467c0.399,0.555,0.368,0.942-0.015,1.484
	c-1.175,1.665-2.331,3.347-3.413,5.074c-0.483,0.771-1.032,1.03-1.942,1.028c-14.238-0.024-28.477-0.009-42.715-0.003
	c-0.479,0-0.957,0-1.531,0c0,5.269,0,10.483,0,15.858c11.897,0,23.822,0,35.992,0c-0.281,0.51-0.418,0.812-0.601,1.082
	c-2.556,3.772-5.133,7.53-7.663,11.32c-0.408,0.611-0.847,0.801-1.561,0.8c-13.079-0.021-26.157-0.01-39.236-0.02
	c-4.477-0.004-8.955-0.065-13.433-0.061c-0.687,0.001-1.083-0.212-1.423-0.809c-7.858-13.76-15.734-27.512-23.603-41.268
	c-0.132-0.232-0.238-0.478-0.439-0.884c0.622,0,1.087,0.004,1.553-0.001c4.956-0.056,9.92,0.061,14.863-0.221
	c5.007-0.286,7.77-4.59,6.292-9.385c-0.918-2.981-3.308-4.026-6.11-4.442c-0.669-0.1-1.355-0.117-2.033-0.117
	c-5.879-0.009-11.759-0.005-17.638-0.005c-0.433,0-0.866,0-1.48,0c0,2.617,0,5.123,0,7.629c0,15.919,0,31.837,0,47.756
	c0,1.732-0.001,1.733-1.675,1.734c-3.92,0.001-7.84-0.029-11.759,0.02c-1.041,0.013-1.385-0.314-1.384-1.371
	c0.024-22.799,0.023-45.597,0.001-68.395c-0.001-1.03,0.293-1.396,1.361-1.393c10.079,0.033,20.158-0.02,30.237,0.039
	c4.285,0.024,8.528,0.484,12.591,2.019c7.241,2.735,10.938,8.106,11.67,15.665c0.326,3.36,0.167,6.704-0.683,9.993
	c-1.509,5.83-5.079,9.847-10.64,12.116c-0.333,0.136-0.664,0.273-0.995,0.414c-0.034,0.015-0.059,0.053-0.191,0.176
	c4.565,7.995,9.143,16.014,13.72,24.031c0.076-0.014,0.151-0.026,0.227-0.04c0-0.295,0-0.589,0-0.883
	c0.001-18.438,0.005-36.877,0.002-55.315c-0.001-4.009,2.918-7.025,6.894-7.072c3.197-0.038,6.395-0.056,9.592-0.07
	c8.158-0.035,16.315-0.049,24.473-0.114c0.899-0.007,1.449,0.244,1.953,1.012c2.41,3.677,4.883,7.312,7.331,10.964
	c0.216,0.322,0.412,0.658,0.733,1.172C96.61,40.823,84.369,40.823,72.061,40.823z"/>
<linearGradient id="SVGID_1_" gradientUnits="userSpaceOnUse" x1="-1006.2407" y1="543.4488" x2="-1056.1715" y2="543.4488" gradientTransform="matrix(1 0 0 1 1128 -481.077)">
	<stop  offset="0" style="stop-color:#FB0000"/>
	<stop  offset="0" style="stop-color:#A80A0A"/>
	<stop  offset="1" style="stop-color:#000000"/>
</linearGradient>
<path fill="url(#SVGID_1_)" d="M72.009,55.742c0.495,0,0.96,0,1.425,0c14.358,0.007,28.718,0.024,43.077-0.007
	c1.012-0.002,1.6,0.311,2.117,1.148c0.947,1.528,1.975,3.009,3.025,4.468c0.4,0.555,0.369,0.941-0.014,1.483
	c-1.176,1.665-2.332,3.347-3.414,5.073c-0.482,0.771-1.031,1.031-1.941,1.029c-14.238-0.025-28.478-0.01-42.716-0.004
	c-0.479,0-0.957,0-1.531,0C72.038,74.202,72.009,50.73,72.009,55.742z"/>
<g>
	<path fill="#A80A0A" d="M178.919,98.045c-0.53,0-0.995,0-1.459,0c-4.782,0-9.563-0.015-14.345,0.018
		c-0.709,0.005-1.118-0.211-1.517-0.804c-4.565-6.807-9.164-13.592-13.752-20.382c-0.222-0.327-0.445-0.651-0.755-1.105
		c-1.623,2.396-3.163,4.666-4.698,6.938c-3.293,4.872-6.575,9.751-9.893,14.605c-0.228,0.333-0.71,0.696-1.076,0.699
		c-5.406,0.044-10.814,0.029-16.221,0.025c-0.096,0-0.191-0.047-0.311-0.078c7.625-11.467,15.229-22.9,22.929-34.482
		c1.748,4.193,4.693,6.665,9.208,6.513c4.472-0.151,7.292-2.706,8.757-7.091C163.542,74.681,171.199,86.314,178.919,98.045z"/>
	<path fill="#A80A0A" d="M116.689,26.788c5.844,0,11.358-0.015,16.871,0.033c0.358,0.003,0.817,0.416,1.053,0.759
		c3.859,5.641,7.69,11.303,11.529,16.959c0.283,0.417,0.58,0.823,0.956,1.356c1.022-1.494,1.979-2.878,2.922-4.269
		c3.178-4.684,6.343-9.375,9.54-14.044c0.235-0.343,0.69-0.757,1.047-0.761c5.441-0.048,10.883-0.033,16.63-0.033
		c-7.184,10.833-14.251,21.495-21.393,32.268c-1.286-4.277-3.921-6.954-8.3-7.304c-4.777-0.382-7.917,2.073-9.731,6.567
		C130.774,47.812,123.813,37.421,116.689,26.788z"/>
</g>
<g>
	<path stroke="#000000" stroke-width="1.5" stroke-miterlimit="10" d="M0.75,123.928v-21.275h8.701c2.225,0,3.853,0.441,4.887,1.326
		c1.032,0.884,1.569,2.26,1.608,4.127c0.04,1.429-0.338,2.617-1.132,3.56c-0.795,0.944-1.937,1.584-3.427,1.922v0.06
		c0.894,0.12,1.619,0.333,2.175,0.64c0.556,0.309,0.984,0.711,1.281,1.208c0.298,0.496,0.496,1.083,0.597,1.757
		c0.098,0.676,0.149,1.44,0.149,2.294c0,0.299,0.01,0.671,0.03,1.119c0.019,0.446,0.049,0.889,0.089,1.326
		c0.04,0.436,0.09,0.834,0.149,1.191s0.138,0.606,0.239,0.745H15.44c-0.1-0.218-0.179-0.511-0.239-0.88
		c-0.06-0.367-0.104-0.76-0.134-1.177s-0.05-0.839-0.06-1.266s-0.014-0.81-0.014-1.148c0-0.873-0.065-1.654-0.194-2.339
		c-0.129-0.686-0.393-1.261-0.79-1.728c-0.398-0.466-0.963-0.825-1.698-1.072c-0.736-0.249-1.719-0.373-2.95-0.373H1.346v9.983H0.75
		z M9.302,113.35c0.794,0,1.553-0.1,2.279-0.299c0.725-0.197,1.365-0.516,1.921-0.954c0.556-0.437,1.003-0.988,1.341-1.652
		c0.338-0.666,0.507-1.466,0.507-2.399c-0.02-1.51-0.477-2.687-1.371-3.531c-0.894-0.845-2.354-1.267-4.38-1.267H1.346v10.102
		C1.346,113.35,9.302,113.35,9.302,113.35z"/>
	<path stroke="#000000" stroke-width="1.5" stroke-miterlimit="10" d="M19.404,111.338c0.258-0.626,0.631-1.166,1.117-1.623
		c0.487-0.458,1.082-0.815,1.788-1.074c0.705-0.257,1.534-0.386,2.488-0.386c0.675,0,1.316,0.07,1.922,0.209
		c0.605,0.139,1.136,0.383,1.594,0.729c0.457,0.349,0.824,0.8,1.103,1.356c0.278,0.556,0.427,1.251,0.447,2.085v9.745
		c0,0.297,0.06,0.516,0.179,0.655c0.12,0.139,0.278,0.234,0.477,0.283c0.198,0.05,0.412,0.069,0.64,0.06
		c0.229-0.01,0.442-0.024,0.641-0.045v0.597h-0.894c-0.437,0-0.82-0.105-1.147-0.314c-0.328-0.208-0.492-0.6-0.492-1.177v-1.997
		h-0.06c-0.159,0.498-0.412,0.975-0.76,1.431c-0.348,0.458-0.785,0.865-1.311,1.222c-0.527,0.357-1.128,0.64-1.803,0.849
		c-0.676,0.209-1.411,0.314-2.205,0.314c-1.549,0-2.792-0.343-3.725-1.028c-0.934-0.685-1.401-1.714-1.401-3.084
		c0-0.954,0.154-1.719,0.462-2.294s0.711-1.028,1.207-1.356s1.063-0.556,1.699-0.686c0.635-0.128,1.271-0.213,1.907-0.252
		c1.052-0.06,1.956-0.115,2.712-0.165c0.754-0.049,1.375-0.149,1.862-0.297c0.486-0.149,0.844-0.377,1.073-0.686
		c0.228-0.307,0.343-0.75,0.343-1.326c0-0.457-0.04-0.934-0.12-1.431c-0.079-0.496-0.273-0.954-0.581-1.371
		c-0.308-0.417-0.76-0.76-1.356-1.028c-0.596-0.269-1.401-0.403-2.414-0.403c-1.609,0-2.861,0.393-3.755,1.177
		c-0.894,0.786-1.39,1.893-1.49,3.324h-0.596C18.996,112.634,19.145,111.965,19.404,111.338z M29.207,114.93
		c-0.199,0.278-0.507,0.492-0.924,0.64c-0.417,0.149-0.894,0.263-1.43,0.343c-0.537,0.079-1.118,0.129-1.744,0.149
		c-0.626,0.02-1.237,0.05-1.832,0.089c-0.596,0.041-1.177,0.115-1.744,0.223c-0.566,0.11-1.068,0.309-1.504,0.597
		c-0.437,0.288-0.785,0.685-1.043,1.191c-0.259,0.508-0.388,1.167-0.388,1.982c0,0.438,0.074,0.87,0.224,1.297
		c0.149,0.427,0.402,0.805,0.76,1.132c0.357,0.328,0.82,0.596,1.385,0.805c0.566,0.209,1.267,0.314,2.101,0.314
		c0.993,0,1.877-0.17,2.652-0.508c0.774-0.338,1.425-0.779,1.951-1.326c0.526-0.546,0.924-1.177,1.192-1.892
		c0.268-0.716,0.402-1.45,0.402-2.205v-2.831H29.207z"/>
	<path stroke="#000000" stroke-width="1.5" stroke-miterlimit="10" d="M33.319,129.173v-20.561h0.596v4.291h0.06
		c0.198-0.674,0.486-1.297,0.864-1.862c0.377-0.566,0.824-1.057,1.34-1.474s1.107-0.74,1.773-0.968
		c0.665-0.228,1.385-0.343,2.161-0.343c1.013,0,1.921,0.199,2.727,0.595c0.804,0.398,1.49,0.954,2.056,1.67
		c0.566,0.714,0.998,1.558,1.297,2.532c0.297,0.975,0.447,2.037,0.447,3.19c0,1.072-0.145,2.095-0.433,3.069
		c-0.288,0.973-0.705,1.828-1.251,2.562c-0.546,0.736-1.227,1.316-2.041,1.743c-0.815,0.428-1.748,0.642-2.801,0.642
		c-1.63,0-2.971-0.422-4.023-1.267c-1.053-0.844-1.758-1.961-2.115-3.351h-0.06v9.535h-0.597V129.173z M42.81,123.02
		c0.744-0.448,1.355-1.023,1.832-1.728c0.477-0.705,0.829-1.5,1.058-2.385c0.228-0.883,0.342-1.772,0.342-2.666
		c0-0.994-0.124-1.932-0.372-2.816c-0.249-0.884-0.616-1.668-1.103-2.354s-1.103-1.227-1.848-1.625
		c-0.744-0.398-1.614-0.596-2.607-0.596c-0.974,0-1.848,0.199-2.623,0.596c-0.774,0.398-1.425,0.935-1.951,1.609
		c-0.527,0.676-0.929,1.461-1.207,2.356c-0.279,0.892-0.417,1.837-0.417,2.831c0,2.402,0.566,4.245,1.698,5.527
		c1.132,1.28,2.632,1.922,4.5,1.922C41.165,123.691,42.064,123.466,42.81,123.02z"/>
	<path stroke="#000000" stroke-width="1.5" stroke-miterlimit="10" d="M49.32,105.662v-3.009h0.596v3.009H49.32z M49.32,123.928
		v-15.316h0.596v15.316H49.32z"/>
	<path stroke="#000000" stroke-width="1.5" stroke-miterlimit="10" d="M65.708,102.653v21.275h-0.596v-4.291h-0.06
		c-0.398,1.371-1.128,2.483-2.19,3.337c-1.063,0.855-2.379,1.282-3.949,1.282c-1.013,0-1.921-0.199-2.727-0.596
		c-0.804-0.398-1.49-0.949-2.056-1.654s-0.998-1.544-1.297-2.517c-0.297-0.973-0.447-2.037-0.447-3.19
		c0-1.072,0.144-2.095,0.433-3.068c0.288-0.973,0.705-1.827,1.251-2.562c0.546-0.736,1.226-1.321,2.041-1.759
		c0.815-0.436,1.748-0.655,2.801-0.655c1.629,0,2.97,0.427,4.023,1.28c1.052,0.855,1.758,1.977,2.115,3.367h0.06v-10.25h0.598
		C65.708,102.652,65.708,102.653,65.708,102.653z M63.414,110.772c-1.132-1.28-2.633-1.922-4.5-1.922
		c-1.033,0-1.927,0.225-2.681,0.671c-0.756,0.448-1.371,1.023-1.848,1.728c-0.477,0.707-0.829,1.5-1.058,2.385
		c-0.228,0.884-0.343,1.772-0.343,2.666c0,0.975,0.124,1.908,0.373,2.802c0.248,0.894,0.616,1.683,1.103,2.368
		c0.487,0.686,1.103,1.227,1.848,1.625c0.744,0.398,1.613,0.596,2.607,0.596c0.993,0,1.873-0.199,2.638-0.596
		c0.765-0.398,1.41-0.935,1.937-1.609c0.526-0.676,0.929-1.461,1.207-2.355c0.278-0.894,0.417-1.837,0.417-2.831
		C65.112,113.897,64.546,112.054,63.414,110.772z"/>
	<path fill="#A80A0A" stroke="#000000" stroke-width="1.5" stroke-miterlimit="10" d="M83.408,123.332v0.597H69.165v-21.275h14.124
		v0.595H69.761v9.297h12.724v0.597H69.761v10.19L83.408,123.332L83.408,123.332z"/>
	<path fill="#A80A0A" stroke="#000000" stroke-width="1.5" stroke-miterlimit="10" d="M95.595,108.612l-5.602,7.39l6.138,7.926
		h-0.745l-5.781-7.479l-5.751,7.479h-0.715l6.108-7.926l-5.573-7.39h0.775l5.155,6.944l5.274-6.944
		C94.878,108.612,95.595,108.612,95.595,108.612z"/>
	<path fill="#A80A0A" stroke="#000000" stroke-width="1.5" stroke-miterlimit="10" d="M98.962,120.949
		c0,0.575,0.065,1.023,0.194,1.34c0.128,0.318,0.293,0.556,0.492,0.716c0.198,0.158,0.417,0.252,0.656,0.283
		c0.238,0.029,0.477,0.044,0.715,0.044c0.297,0,0.566-0.005,0.804-0.014c0.239-0.01,0.407-0.034,0.507-0.074v0.597
		c-0.179,0.019-0.353,0.039-0.521,0.06c-0.17,0.019-0.483,0.029-0.939,0.029c-0.695,0-1.286-0.204-1.773-0.611
		c-0.488-0.407-0.73-1.158-0.73-2.249v-11.86h-2.801v-0.597h2.801v-4.827h0.596v4.827h3.456v0.597h-3.456L98.962,120.949
		L98.962,120.949z"/>
	<path fill="#A80A0A" stroke="#000000" stroke-width="1.5" stroke-miterlimit="10" d="M104.505,123.928v-15.316h0.596v3.785h0.06
		c0.138-0.576,0.357-1.117,0.656-1.625c0.297-0.506,0.695-0.947,1.192-1.326c0.496-0.377,1.088-0.676,1.773-0.894
		c0.685-0.218,1.484-0.317,2.398-0.297v0.595c-1.053-0.058-1.962,0.086-2.727,0.433c-0.765,0.348-1.396,0.825-1.892,1.429
		c-0.496,0.606-0.864,1.308-1.103,2.102c-0.238,0.794-0.357,1.609-0.357,2.443v8.672h-0.596
		C104.505,123.929,104.505,123.928,104.505,123.928z"/>
	<path fill="#A80A0A" stroke="#000000" stroke-width="1.5" stroke-miterlimit="10" d="M112.639,111.338
		c0.258-0.626,0.631-1.166,1.117-1.623c0.487-0.458,1.082-0.815,1.788-1.074c0.705-0.257,1.534-0.386,2.488-0.386
		c0.675,0,1.316,0.07,1.922,0.209c0.605,0.139,1.136,0.383,1.594,0.729c0.457,0.349,0.824,0.8,1.103,1.356
		c0.278,0.556,0.427,1.251,0.447,2.085v9.745c0,0.297,0.06,0.516,0.179,0.655c0.12,0.139,0.278,0.234,0.477,0.283
		c0.198,0.05,0.412,0.069,0.64,0.06c0.229-0.01,0.442-0.024,0.641-0.045v0.597h-0.894c-0.437,0-0.82-0.105-1.147-0.314
		c-0.328-0.208-0.492-0.6-0.492-1.177v-1.997h-0.06c-0.159,0.498-0.412,0.975-0.76,1.431c-0.347,0.458-0.785,0.865-1.311,1.222
		c-0.527,0.357-1.128,0.64-1.802,0.849c-0.676,0.209-1.411,0.314-2.205,0.314c-1.549,0-2.792-0.343-3.725-1.028
		c-0.934-0.685-1.401-1.714-1.401-3.084c0-0.954,0.154-1.719,0.462-2.294s0.711-1.028,1.207-1.356s1.063-0.556,1.699-0.686
		c0.635-0.128,1.271-0.213,1.907-0.252c1.052-0.06,1.956-0.115,2.712-0.165c0.754-0.049,1.375-0.149,1.862-0.297
		c0.486-0.149,0.844-0.377,1.073-0.686c0.228-0.307,0.343-0.75,0.343-1.326c0-0.457-0.04-0.934-0.12-1.431
		c-0.079-0.496-0.273-0.954-0.581-1.371s-0.76-0.76-1.356-1.028c-0.596-0.269-1.401-0.403-2.414-0.403
		c-1.609,0-2.861,0.393-3.755,1.177c-0.894,0.786-1.39,1.893-1.49,3.324h-0.596C112.232,112.634,112.38,111.965,112.639,111.338z
		 M122.442,114.93c-0.199,0.278-0.507,0.492-0.924,0.64c-0.417,0.149-0.894,0.263-1.43,0.343c-0.537,0.079-1.118,0.129-1.744,0.149
		c-0.626,0.02-1.237,0.05-1.832,0.089c-0.596,0.041-1.177,0.115-1.744,0.223c-0.566,0.11-1.068,0.309-1.504,0.597
		c-0.437,0.288-0.785,0.685-1.043,1.191c-0.259,0.508-0.388,1.167-0.388,1.982c0,0.438,0.074,0.87,0.224,1.297
		c0.149,0.427,0.402,0.805,0.76,1.132c0.357,0.328,0.82,0.596,1.386,0.805s1.267,0.314,2.101,0.314c0.993,0,1.877-0.17,2.652-0.508
		c0.774-0.338,1.425-0.779,1.951-1.326c0.526-0.546,0.924-1.177,1.192-1.892c0.268-0.716,0.402-1.45,0.402-2.205v-2.831H122.442z"/>
	<path fill="#A80A0A" stroke="#000000" stroke-width="1.5" stroke-miterlimit="10" d="M138.265,121.023
		c-0.338,0.686-0.78,1.266-1.326,1.743c-0.547,0.477-1.182,0.846-1.908,1.103c-0.725,0.259-1.525,0.388-2.398,0.388
		c-1.093,0-2.061-0.204-2.905-0.611c-0.845-0.407-1.555-0.959-2.131-1.654c-0.576-0.695-1.014-1.505-1.311-2.428
		c-0.298-0.925-0.447-1.913-0.447-2.965c0-1.112,0.144-2.171,0.432-3.173c0.288-1.004,0.725-1.888,1.311-2.653
		s1.331-1.374,2.235-1.832s1.962-0.686,3.173-0.686c0.715,0,1.401,0.108,2.056,0.328c0.656,0.218,1.241,0.535,1.758,0.952
		c0.516,0.417,0.948,0.939,1.296,1.565s0.571,1.347,0.671,2.16h-0.597c-0.119-0.755-0.338-1.405-0.656-1.951
		c-0.318-0.546-0.705-1.002-1.161-1.371c-0.458-0.367-0.974-0.64-1.55-0.82c-0.576-0.178-1.182-0.268-1.818-0.268
		c-1.212,0-2.24,0.234-3.084,0.702c-0.845,0.466-1.52,1.072-2.026,1.817c-0.507,0.745-0.875,1.579-1.103,2.503
		c-0.229,0.925-0.343,1.833-0.343,2.727c0,0.933,0.134,1.827,0.403,2.682c0.268,0.854,0.66,1.609,1.177,2.263
		c0.516,0.656,1.162,1.179,1.937,1.565c0.774,0.388,1.669,0.582,2.682,0.582c0.754,0,1.46-0.115,2.115-0.343
		c0.656-0.23,1.237-0.561,1.744-0.999c0.506-0.437,0.918-0.959,1.237-1.565c0.317-0.605,0.506-1.295,0.566-2.071h0.596
		C138.811,119.568,138.602,120.338,138.265,121.023z"/>
	<path fill="#A80A0A" stroke="#000000" stroke-width="1.5" stroke-miterlimit="10" d="M143.092,120.949
		c0,0.575,0.065,1.023,0.194,1.34c0.129,0.318,0.293,0.556,0.492,0.716c0.198,0.158,0.417,0.252,0.656,0.283
		c0.238,0.029,0.477,0.044,0.715,0.044c0.297,0,0.566-0.005,0.804-0.014c0.238-0.01,0.407-0.034,0.507-0.074v0.597
		c-0.179,0.019-0.353,0.039-0.521,0.06c-0.17,0.019-0.483,0.029-0.939,0.029c-0.695,0-1.286-0.204-1.773-0.611
		s-0.73-1.158-0.73-2.249v-11.86h-2.801v-0.597h2.801v-4.827h0.596v4.827h3.456v0.597h-3.456v11.739
		C143.093,120.949,143.092,120.949,143.092,120.949z"/>
	<path fill="#A80A0A" stroke="#000000" stroke-width="1.5" stroke-miterlimit="10" d="M148.635,105.662v-3.009h0.596v3.009H148.635z
		 M148.635,123.928v-15.316h0.596v15.316H148.635z"/>
	<path fill="#A80A0A" stroke="#000000" stroke-width="1.5" stroke-miterlimit="10" d="M152.15,113.246
		c0.298-0.964,0.74-1.812,1.327-2.548c0.585-0.734,1.305-1.326,2.16-1.773c0.854-0.446,1.848-0.669,2.98-0.669
		c1.112,0,2.095,0.223,2.95,0.669c0.854,0.448,1.575,1.039,2.161,1.773c0.585,0.736,1.028,1.584,1.326,2.548
		c0.298,0.963,0.447,1.972,0.447,3.025s-0.149,2.061-0.447,3.025c-0.297,0.963-0.74,1.812-1.326,2.548s-1.306,1.321-2.161,1.757
		c-0.854,0.437-1.847,0.656-2.979,0.656c-1.113,0-2.096-0.22-2.95-0.656s-1.575-1.022-2.16-1.757
		c-0.587-0.736-1.028-1.584-1.327-2.548c-0.297-0.964-0.447-1.972-0.447-3.025C151.703,115.218,151.852,114.209,152.15,113.246z
		 M152.701,119.072c0.268,0.894,0.671,1.683,1.207,2.368c0.537,0.685,1.196,1.232,1.982,1.639c0.784,0.407,1.693,0.611,2.727,0.611
		c1.013,0,1.912-0.204,2.697-0.611c0.784-0.407,1.445-0.954,1.981-1.639c0.537-0.686,0.939-1.475,1.207-2.368
		c0.268-0.894,0.402-1.828,0.402-2.802c0-0.954-0.134-1.877-0.402-2.771c-0.268-0.894-0.67-1.685-1.207-2.37
		c-0.536-0.684-1.197-1.235-1.981-1.654c-0.785-0.417-1.684-0.626-2.697-0.626c-1.034,0-1.942,0.209-2.727,0.626
		c-0.786,0.419-1.445,0.97-1.982,1.654c-0.536,0.686-0.938,1.476-1.207,2.37c-0.268,0.894-0.402,1.817-0.402,2.771
		C152.299,117.243,152.433,118.178,152.701,119.072z"/>
	<path fill="#A80A0A" stroke="#000000" stroke-width="1.5" stroke-miterlimit="10" d="M168.569,108.612v3.785h0.06
		c0.138-0.597,0.362-1.143,0.67-1.639s0.695-0.933,1.162-1.311c0.467-0.377,1.008-0.671,1.624-0.879
		c0.615-0.209,1.301-0.312,2.056-0.312c0.795,0,1.524,0.118,2.191,0.357c0.663,0.238,1.242,0.592,1.727,1.057
		c0.488,0.467,0.866,1.043,1.132,1.728c0.268,0.685,0.404,1.476,0.404,2.37v10.161H179v-10.072c0-0.894-0.129-1.654-0.388-2.279
		c-0.259-0.626-0.611-1.143-1.057-1.55c-0.449-0.406-0.967-0.705-1.552-0.892c-0.585-0.189-1.206-0.285-1.862-0.285
		c-0.913,0-1.719,0.175-2.414,0.522c-0.695,0.348-1.276,0.815-1.743,1.4c-0.467,0.587-0.82,1.268-1.058,2.042
		c-0.239,0.774-0.357,1.589-0.357,2.443v8.672h-0.596v-15.316h0.596V108.612z"/>
</g>
</svg>
